<?xml version="1.0" encoding="UTF-8"?>
<svg version="1.1" xmlns="http://www.w3.org/2000/svg" width="720" height="272">
<path d="M0 0 C4.23283514 1.89126676 5.47651496 4.62751794 7.1875 8.75 C9.60894667 15.97512629 10.280268 23.4522842 11 31 C11.76183594 30.46890625 12.52367187 29.9378125 13.30859375 29.390625 C23.23491278 22.59958527 32.52254797 16.67885802 45 18 C48.8425403 19.30501369 50.52721 20.35944581 52.9375 23.625 C55.46792318 31.66281481 52.48288527 37.78850177 48.765625 45.0078125 C46.70035847 48.50779958 44.40257236 51.72302205 42 55 C42.58378418 55.03440186 43.16756836 55.06880371 43.76904297 55.10424805 C65.24344793 56.47157196 65.24344793 56.47157196 73 62 C73.969375 62.66 74.93875 63.32 75.9375 64 C79.38223861 67.34035259 80.94406091 69.48964445 81.125 74.375 C79.24601507 80.42950698 75.58229521 83.52137069 70.1484375 86.6328125 C67.12607526 88.15547095 64.0762473 89.589884 61 91 C59.41327943 91.78485566 57.82938642 92.57548822 56.25 93.375 C54.64125 94.179375 54.64125 94.179375 53 95 C53.85722656 95.64066406 54.71445312 96.28132813 55.59765625 96.94140625 C74.5534686 111.21783143 74.5534686 111.21783143 76 121 C75.69786002 122.34074618 75.36827866 123.67589286 75 125 C64.22212588 120.36247162 53.5618297 115.512966 42.96142578 110.48339844 C40.60704319 109.3664813 38.25092235 108.25329758 35.89453125 107.140625 C32.90154488 105.7272676 29.9155013 104.30055793 26.93334961 102.86450195 C24.55634918 101.72350897 22.1862619 100.65526216 19.75610352 99.62573242 C13.40105251 96.8516523 13.40105251 96.8516523 11.32421875 92.44140625 C11.11410156 91.16136719 10.90398437 89.88132812 10.6875 88.5625 C9.5008097 82.70726857 8.67565295 78.93179907 4 75 C-4.88785838 69.47218564 -13.7117668 68.87745465 -23.8125 71.125 C-38.79978739 75.26597421 -51.88268425 84.54426938 -60 98 C-65.80131543 108.42804354 -69.13398176 118.25506167 -71 130 C-94.60170212 130.67540642 -94.60170212 130.67540642 -103 123 C-104.75 120.1875 -104.75 120.1875 -105 117 C-102.53878372 107.21615678 -93.16254222 101.52880935 -85.0625 96.625 C-83.96035156 95.97789063 -82.85820312 95.33078125 -81.72265625 94.6640625 C-78.97382671 93.13021612 -78.97382671 93.13021612 -77 91 C-77.76183594 90.46632813 -78.52367187 89.93265625 -79.30859375 89.3828125 C-97.03960293 76.58815169 -97.03960293 76.58815169 -100 67 C-100.70258191 61.91922343 -101.14011055 56.71467067 -97.9375 52.4375 C-93.27293854 48.56690645 -89.24249986 47.75035257 -83.3125 48.1875 C-77.42219162 48.93173003 -71.71898618 50.43759656 -66 52 C-66.13277344 51.20335937 -66.26554687 50.40671875 -66.40234375 49.5859375 C-66.93489583 46.390625 -67.46744792 43.1953125 -68 40 C-68.18046875 38.9996875 -68.3609375 37.999375 -68.546875 36.96875 C-69.6738448 29.58515474 -70.1878788 22.16825071 -66.2578125 15.55859375 C-63.17580501 11.73958446 -59.81676834 11.10538946 -55.125 10.5 C-47.38101553 10.89599921 -42.58239121 16.1740196 -37.625 21.625 C-35.20899451 24.355161 -33.02270655 26.96594018 -31 30 C-30.69707031 29.24976562 -30.39414062 28.49953125 -30.08203125 27.7265625 C-28.7497539 24.47170644 -27.38216981 21.2339719 -26 18 C-25.42378906 16.62521484 -25.42378906 16.62521484 -24.8359375 15.22265625 C-19.67118046 3.82154292 -12.4385837 -1.18977757 0 0 Z " fill="white" transform="translate(372,9)"/>
<path d="M0 0 C0.99 0.33 1.98 0.66 3 1 C3.680625 2.3921875 3.680625 2.3921875 4.375 3.8125 C6.74662041 8.46452464 10.24701591 10.99829523 15 13 C24.07013192 14.31551532 31.93636038 12.10339058 40 8 C40.6604834 7.4539209 41.3209668 6.9078418 42.00146484 6.34521484 C47.56486505 1.85604085 47.56486505 1.85604085 51.59448242 2.26025391 C54.60167886 3.27169463 57.38809991 4.50505633 60.25 5.875 C62.45159486 6.84426817 64.65342816 7.81299489 66.85546875 8.78125 C68.00966309 9.30589844 69.16385742 9.83054687 70.35302734 10.37109375 C74.14121073 12.06307123 77.95752325 13.65744316 81.80078125 15.21875 C82.77369614 15.61466843 82.77369614 15.61466843 83.76626587 16.01858521 C85.06252916 16.54572944 86.3589047 17.07259772 87.65539551 17.59918213 C95.5724107 20.81985614 103.41819124 24.04508863 111 28 C108.52369126 33.44328573 104.40018892 34.84630575 99 37 C92.87687115 39.02937985 88.35525836 37.39371984 82.515625 35.0078125 C80.34304838 34.13743242 78.28069123 33.50089948 76 33 C76.27714844 33.74765625 76.55429687 34.4953125 76.83984375 35.265625 C77.20207031 36.25046875 77.56429687 37.2353125 77.9375 38.25 C78.47697266 39.71179688 78.47697266 39.71179688 79.02734375 41.203125 C81.88756153 49.42768698 82.65793511 58.98578812 79.3125 67.1875 C77.44462832 70.68894587 75.86925927 72.68093434 72 74 C65.6276182 74.73125693 61.3045431 73.60027222 56 70 C50.45689594 65.56091666 47.1109955 60.3223457 44 54 C43.79246094 54.84820312 43.58492188 55.69640625 43.37109375 56.5703125 C40.31810445 68.19466507 36.58171001 79.96485711 26.9921875 87.86328125 C24.63423952 89.20869863 22.69204284 89.69418393 20 90 C14.70938767 88.42407292 12.19904183 85.31220586 9.3828125 80.79296875 C5.42783868 72.80481542 3.79689733 63.68500376 2 55 C1.13375 55.495 1.13375 55.495 0.25 56 C-2 57 -2 57 -6 57 C-10.90279249 42.46583343 -15.97025315 26.13540367 -11 11 C-8.30654966 6.07748731 -5.05879237 2.52939619 0 0 Z " fill="white" transform="translate(335,109)"/>
<path d="M0 0 C5.21031273 -0.09980707 10.42005385 -0.17190561 15.63110352 -0.21972656 C17.39910593 -0.23968762 19.16704366 -0.26686652 20.93481445 -0.30175781 C44.87935169 -0.7620995 44.87935169 -0.7620995 54.4375 8.3125 C62.03984089 15.6859273 65.00204349 23.33297686 65.3125 33.875 C65.10836632 43.40924356 62.63844243 51.03188323 56 58 C46.94938248 66.2636073 37.42562754 68.12231722 25.3515625 68.1328125 C24.65356537 68.13376923 23.95556824 68.13472595 23.23641968 68.13571167 C21.77593901 68.13638703 20.31545523 68.13457809 18.85498047 68.13037109 C16.61028443 68.12496456 14.36578406 68.13036262 12.12109375 68.13671875 C10.69791622 68.13605881 9.27473882 68.13477939 7.8515625 68.1328125 C6.56072754 68.13168457 5.26989258 68.13055664 3.93994141 68.12939453 C1 68 1 68 0 67 C-0.09417773 64.91380978 -0.11742878 62.82439523 -0.11352539 60.73608398 C-0.11367142 60.08244873 -0.11381744 59.42881348 -0.1139679 58.75537109 C-0.11326883 56.58557872 -0.10547678 54.41587121 -0.09765625 52.24609375 C-0.09579205 50.74536689 -0.09436816 49.24463943 -0.09336853 47.74391174 C-0.08954352 43.78681774 -0.0797134 39.82976022 -0.06866455 35.87268066 C-0.05845006 31.83765151 -0.05387083 27.80261647 -0.04882812 23.76757812 C-0.03809111 15.84503531 -0.0210149 7.92252219 0 0 Z M9 8 C9 24.83 9 41.66 9 59 C15.373125 59.12375 15.373125 59.12375 21.875 59.25 C23.1935498 59.28641602 24.51209961 59.32283203 25.87060547 59.36035156 C34.41945974 59.44006715 41.62464053 58.52693239 48.4375 53.03515625 C54.263098 45.68033878 56.541056 39.17800956 55.82421875 29.66796875 C54.77350917 23.60781554 52.23861595 18.47264996 48 14 C35.67298762 5.71624768 24.52472443 8 9 8 Z " fill="white" transform="translate(452,201)"/>
<path d="M0 0 C1.72265625 1.46484375 1.72265625 1.46484375 2.72265625 4.46484375 C0.78515625 7.65234375 0.78515625 7.65234375 -1.27734375 10.46484375 C-2.20675781 9.98273438 -3.13617188 9.500625 -4.09375 9.00390625 C-5.3422813 8.36555942 -6.5909887 7.72755697 -7.83984375 7.08984375 C-8.44892578 6.77273437 -9.05800781 6.455625 -9.68554688 6.12890625 C-18.37790969 1.71373784 -28.22642665 -0.73045713 -37.82421875 2.2578125 C-41.25828713 3.89338156 -43.1537894 5.27951223 -45.27734375 8.46484375 C-45.43545763 11.51754838 -45.43545763 11.51754838 -44.27734375 14.46484375 C-40.00540164 17.10302229 -36.2285575 17.97780171 -31.27734375 18.52734375 C-29.95050682 18.68868686 -28.62368423 18.85014801 -27.296875 19.01171875 C-24.71215025 19.30839803 -22.12681858 19.58506582 -19.5390625 19.85546875 C-10.77766183 20.88960129 -3.11442475 22.53183573 3.22265625 29.02734375 C6.86312997 34.94311354 7.63027826 39.5031898 6.72265625 46.46484375 C4.32237808 53.28116769 -1.02486325 57.24106891 -7.27734375 60.46484375 C-17.95555694 64.99687609 -32.70205012 63.59024094 -43.35546875 59.75390625 C-48.17501906 57.62763405 -52.76442326 55.1780224 -57.27734375 52.46484375 C-57.27734375 48.18774676 -56.57114124 46.90553999 -54.27734375 43.46484375 C-51.20274697 44.08798029 -48.99659579 45.13025947 -46.33984375 46.77734375 C-36.94638059 52.09206633 -26.55734908 55.18708486 -15.8359375 52.95703125 C-10.84896767 51.527488 -7.45287108 49.7319586 -4.27734375 45.46484375 C-3.02308432 41.78045667 -3.11137517 39.99386861 -4.27734375 36.27734375 C-6.77359433 32.76699138 -9.25719325 31.64029322 -13.27734375 30.46484375 C-18.40913468 29.61458182 -23.58731656 29.20168878 -28.765625 28.73632812 C-46.82467979 26.88214814 -46.82467979 26.88214814 -52.40234375 20.33984375 C-55.68026269 15.31370137 -55.93593418 11.41045176 -55.27734375 5.46484375 C-51.75993787 -1.569968 -46.48812864 -4.83111192 -39.27734375 -7.53515625 C-26.40409556 -11.36233814 -11.02549942 -6.93925423 0 0 Z " fill="white" transform="translate(58.27734375,207.53515625)"/>
<path d="M0 0 C2.31 0 4.62 0 7 0 C14.18359189 13.50217552 21.15851519 27.10190979 28.00830078 40.77636719 C29.65223324 44.05430198 31.30465157 47.32787934 32.95703125 50.6015625 C34.00572952 52.69244701 35.05392632 54.78358313 36.1015625 56.875 C36.59516266 57.84985352 37.08876282 58.82470703 37.59732056 59.82910156 C38.04554169 60.72854492 38.49376282 61.62798828 38.95556641 62.5546875 C39.35176178 63.34343262 39.74795715 64.13217773 40.15615845 64.94482422 C41 67 41 67 41 70 C37.92798998 70.35446269 35.06369655 70.47953511 32 70 C29.8125 67.75 29.8125 67.75 28 64 C26.02 60.04 24.04 56.08 22 52 C9.79 52 -2.42 52 -15 52 C-17.97 57.94 -20.94 63.88 -24 70 C-27.3 70 -30.6 70 -34 70 C-32.5793848 65.35463722 -30.67551444 61.09986508 -28.47265625 56.78515625 C-28.12764069 56.10064392 -27.78262512 55.41613159 -27.42715454 54.71087646 C-26.69003124 53.24892454 -25.95119524 51.78783511 -25.21078491 50.32754517 C-23.27504261 46.50920383 -21.35181001 42.6845866 -19.4296875 38.859375 C-19.04816025 38.10046463 -18.666633 37.34155426 -18.27354431 36.55964661 C-14.53941801 29.11435824 -10.93738425 21.60977737 -7.40063477 14.06860352 C-5.12647892 9.24347424 -2.71563521 4.59234422 0 0 Z M3 14 C2.48050781 15.03898438 1.96101563 16.07796875 1.42578125 17.1484375 C1.08998047 17.81987793 0.75417969 18.49131836 0.40820312 19.18310547 C-0.32408829 20.64801462 -1.05585663 22.11318537 -1.78710938 23.57861328 C-3.39444879 26.79828827 -5.0072354 30.01416144 -6.64453125 33.21875 C-7.09183594 34.0953125 -7.53914063 34.971875 -8 35.875 C-8.5878125 37.01582031 -8.5878125 37.01582031 -9.1875 38.1796875 C-10.13586416 39.97215254 -10.13586416 39.97215254 -10 42 C-0.76 42 8.48 42 18 42 C16.618125 39.050625 15.23625 36.10125 13.8125 33.0625 C13.17598511 31.69750366 13.17598511 31.69750366 12.52661133 30.30493164 C9.9031094 24.73755035 7.05762684 19.3409563 4 14 C3.67 14 3.34 14 3 14 Z " fill="white" transform="translate(283,199)"/>
<path d="M0 0 C6.620625 -0.061875 13.24125 -0.12375 20.0625 -0.1875 C22.13926025 -0.21481201 24.21602051 -0.24212402 26.35571289 -0.27026367 C28.01968811 -0.2790335 29.68366982 -0.28667626 31.34765625 -0.29296875 C32.19710815 -0.30831665 33.04656006 -0.32366455 33.92175293 -0.33947754 C40.4441419 -0.34232119 45.24511774 0.68009915 50.375 5 C53.4780343 8.81911913 53.33325274 12.7787312 53.28515625 17.4921875 C52.76143672 22.09804968 50.36904143 24.83838909 46.9375 27.75 C46.298125 28.1625 45.65875 28.575 45 29 C44.01 29.66 43.02 30.32 42 31 C42.32274902 31.48879639 42.64549805 31.97759277 42.97802734 32.48120117 C44.44832799 34.71361559 45.91170507 36.95048788 47.375 39.1875 C47.88289063 39.95642578 48.39078125 40.72535156 48.9140625 41.51757812 C51.34486963 45.24374958 53.58480468 48.74588876 55 53 C51.81626686 53.64974146 49.16734879 53.80198896 46 53 C42.15826918 49.30233409 39.67517422 44.55033212 37.5625 39.69921875 C35.6735186 35.90763349 34.33630931 33.65773793 31 31 C23.75670602 29.20151902 16.41558161 29.82343853 9 30 C9 37.59 9 45.18 9 53 C6.03 53 3.06 53 0 53 C0 35.51 0 18.02 0 0 Z M9 8 C9 12.62 9 17.24 9 22 C13.02059946 22.06914407 17.03967009 22.12879137 21.06054688 22.16479492 C22.42617816 22.17981428 23.79176176 22.20023608 25.15722656 22.22631836 C27.12803905 22.26300137 29.09921408 22.27818551 31.0703125 22.29296875 C32.25383301 22.3086792 33.43735352 22.32438965 34.65673828 22.34057617 C38.36824856 21.96248673 40.79004798 20.85288176 44 19 C44 16.36 44 13.72 44 11 C39.47751105 8.38948208 36.27339211 7.63796382 31.0703125 7.70703125 C29.13671875 7.7215332 29.13671875 7.7215332 27.1640625 7.73632812 C25.81770214 7.76138812 24.47134797 7.78678288 23.125 7.8125 C21.75522295 7.82756496 20.38542998 7.84125018 19.015625 7.85351562 C15.67691255 7.88878371 12.33840508 7.94258794 9 8 Z " fill="white" transform="translate(181,216)"/>
<path d="M0 0 C4.74375 -0.0825 9.4875 -0.165 14.375 -0.25 C15.8501709 -0.28641602 17.3253418 -0.32283203 18.84521484 -0.36035156 C29.22709293 -0.44727613 37.73887907 1.04803857 45.53125 8.2890625 C50.56725404 14.15547146 52.33541067 20.98598999 52.2109375 28.56640625 C51.64448357 35.10160621 49.35291543 40.62374406 44.87109375 45.4296875 C37.65869408 51.48268263 29.71750702 53.14151194 20.5078125 53.09765625 C19.4264502 53.09515869 18.34508789 53.09266113 17.23095703 53.09008789 C15.1985083 53.07643188 15.1985083 53.07643188 13.125 53.0625 C8.79375 53.041875 4.4625 53.02125 0 53 C0 35.51 0 18.02 0 0 Z M9 8 C9 19.88 9 31.76 9 44 C12.3 44.0825 15.6 44.165 19 44.25 C20.53527344 44.30462402 20.53527344 44.30462402 22.1015625 44.36035156 C28.14752282 44.43288437 33.07644519 43.73301388 38 40 C42.07368765 34.80956133 43.52544974 29.51557672 43 23 C41.57373253 17.69464841 39.67948139 14.02071 35 11 C26.54037689 6.241462 19.49650569 8 9 8 Z " fill="white" transform="translate(384,216)"/>
<path d="M0 0 C1.36269125 0.95960947 2.7071222 1.94821829 4 3 C3.25 5.9375 3.25 5.9375 2 9 C-0.39503005 10.05934022 -1.53246273 10.17350016 -4 9.2578125 C-4.66 8.88398438 -5.32 8.51015625 -6 8.125 C-10.9022718 5.38662161 -14.80500159 4.82813871 -20.4375 4.75 C-21.54996094 4.72421875 -22.66242187 4.6984375 -23.80859375 4.671875 C-27.34007533 5.03496491 -29.1769687 5.88913086 -32 8 C-33.1490712 9.9254644 -33.1490712 9.9254644 -33 12 C-32.00484776 13.83115894 -32.00484776 13.83115894 -30 15 C-26.0916265 15.83378635 -22.27908115 16.1110879 -18.29003906 16.23925781 C-9.74654856 16.54598916 -1.70752271 17.2020499 4.5625 23.625 C7.62815554 28.6899961 7.57203826 33.14697083 7 39 C4.51574263 44.58957909 0.28612673 47.27552811 -5 50 C-16.24107646 53.74702549 -30.04534745 50.9047714 -40.35546875 45.84375 C-41.94010368 44.95812569 -43.47876264 43.99057316 -45 43 C-43.6875 40.0625 -43.6875 40.0625 -42 37 C-38.06777704 35.68925901 -36.84525597 36.69578222 -33.125 38.375 C-25.77630035 41.67178506 -17.865537 43.65438223 -9.8671875 41.3984375 C-7.12110827 40.26094024 -5.10856 39.10856 -3 37 C-2.75746187 34.78927023 -2.75746187 34.78927023 -2.875 32.375 C-2.89304687 31.55773437 -2.91109375 30.74046875 -2.9296875 29.8984375 C-2.95289063 29.27195313 -2.97609375 28.64546875 -3 28 C-9.69252275 25.78448079 -16.25846818 25.34746854 -23.26171875 24.87695312 C-29.48383043 24.37864548 -34.70951818 23.49622759 -39.8125 19.625 C-42.29349681 16.22995173 -43.02898446 13.79707276 -42.875 9.5625 C-41.71770831 4.85066953 -40.27960893 1.72438802 -36.33203125 -1.26171875 C-25.73616636 -7.10276613 -10.48448964 -5.06439806 0 0 Z " fill="white" transform="translate(652,219)"/>
<path d="M0 0 C5 0 5 0 7.140625 1.8359375 C7.83671875 2.67382812 8.5328125 3.51171875 9.25 4.375 C10.02859375 5.29023438 10.8071875 6.20546875 11.609375 7.1484375 C12.79273438 8.55996094 12.79273438 8.55996094 14 10 C15.49287606 11.67305076 16.99273508 13.33990053 18.5 15 C19.23605469 15.81855469 19.97210938 16.63710937 20.73046875 17.48046875 C22.29272201 19.21481186 23.85800423 20.94642979 25.42578125 22.67578125 C26.21339844 23.54589844 27.00101562 24.41601562 27.8125 25.3125 C28.52019531 26.09238281 29.22789062 26.87226563 29.95703125 27.67578125 C32.04664401 30.05306537 34.02276751 32.52845939 36 35 C36.33 23.45 36.66 11.9 37 0 C39.97 0 42.94 0 46 0 C46 17.82 46 35.64 46 54 C41 54 41 54 38.203125 51.5078125 C37.20476506 50.39257139 36.22108804 49.26406686 35.25 48.125 C34.72414307 47.53146729 34.19828613 46.93793457 33.65649414 46.32641602 C32.59036232 45.12152658 31.52982695 43.91166076 30.47509766 42.69677734 C28.49258936 40.41633499 26.46552919 38.17746737 24.4375 35.9375 C22.973125 34.308125 21.50875 32.67875 20 31 C16.37 27.04 12.74 23.08 9 19 C8.67 30.55 8.34 42.1 8 54 C5.36 54 2.72 54 0 54 C0 36.18 0 18.36 0 0 Z " fill="white" transform="translate(330,215)"/>
<path d="M0 0 C1.4540625 0.0309375 1.4540625 0.0309375 2.9375 0.0625 C3.29875977 0.75996338 3.66001953 1.45742676 4.03222656 2.17602539 C5.1239706 4.28347759 6.21595311 6.39080625 7.30810547 8.49804688 C8.56847219 10.92986001 9.82776048 13.36222774 11.08642578 15.79492188 C14.21278651 21.83355784 17.35363656 27.86330622 20.5390625 33.87109375 C21.09174805 34.9170874 21.64443359 35.96308105 22.21386719 37.04077148 C23.26416146 39.02603298 24.31935645 41.00871098 25.37988281 42.98852539 C25.85006836 43.87918701 26.32025391 44.76984863 26.8046875 45.6875 C27.21831543 46.46351563 27.63194336 47.23953125 28.05810547 48.0390625 C28.9375 50.0625 28.9375 50.0625 28.9375 53.0625 C25.9675 53.0625 22.9975 53.0625 19.9375 53.0625 C17.6275 48.7725 15.3175 44.4825 12.9375 40.0625 C4.3575 40.0625 -4.2225 40.0625 -13.0625 40.0625 C-16.5275 46.4975 -16.5275 46.4975 -20.0625 53.0625 C-23.0325 53.0625 -26.0025 53.0625 -29.0625 53.0625 C-28.46991373 48.09837566 -26.23804886 44.31009068 -23.875 40 C-18.90514525 30.76827356 -14.20230973 21.41682094 -9.55166626 12.021698 C-8.65954568 10.21949901 -7.76536436 8.41832058 -6.87109375 6.6171875 C-6.35345459 5.57030762 -5.83581543 4.52342773 -5.30249023 3.44482422 C-3.54715215 0.07239086 -3.54715215 0.07239086 0 0 Z M-1.0625 14.0625 C-2.40069498 16.6851232 -3.7332151 19.31036599 -5.0625 21.9375 C-5.4440625 22.68386719 -5.825625 23.43023437 -6.21875 24.19921875 C-6.5796875 24.91464844 -6.940625 25.63007813 -7.3125 26.3671875 C-7.64765625 27.02702637 -7.9828125 27.68686523 -8.328125 28.36669922 C-9.19496413 30.0603855 -9.19496413 30.0603855 -9.0625 32.0625 C-3.1225 32.0625 2.8175 32.0625 8.9375 32.0625 C7.44498294 27.58494882 5.93502948 23.84027506 3.8125 19.6875 C3.27367187 18.62789062 2.73484375 17.56828125 2.1796875 16.4765625 C1.76976562 15.67992187 1.35984375 14.88328125 0.9375 14.0625 C0.2775 14.0625 -0.3825 14.0625 -1.0625 14.0625 Z " fill="white" transform="translate(549.0625,215.9375)"/>
<path d="M0 0 C2.6875 -0.5 2.6875 -0.5 6 0 C11.04542594 6.99339909 14.57999765 14.96712536 18.375 22.6875 C19.65074259 25.27618355 20.92952616 27.86333672 22.2109375 30.44921875 C22.52230652 31.07899628 22.83367554 31.7087738 23.15447998 32.3576355 C25.87160804 37.81908579 28.77376688 43.16783324 31.73681641 48.49926758 C33 51 33 51 33 53 C30.03 53 27.06 53 24 53 C23.71189453 51.60974609 23.71189453 51.60974609 23.41796875 50.19140625 C21.4157657 44.24127823 21.4157657 44.24127823 17 40 C8.26827466 37.9093052 -1.09227205 38.56917352 -10 39 C-10.3086499 39.77956055 -10.6172998 40.55912109 -10.93530273 41.36230469 C-11.88728304 43.72075349 -12.92224731 45.97816573 -14.0625 48.25 C-14.40410156 48.93578125 -14.74570313 49.6215625 -15.09765625 50.328125 C-16 52 -16 52 -17 53 C-19.67058851 53.14115161 -22.32432238 53.04247107 -25 53 C-25 49.70961636 -24.38186387 48.39896644 -22.92041016 45.50024414 C-22.46638824 44.59242691 -22.01236633 43.68460968 -21.54458618 42.74928284 C-21.04776337 41.77112106 -20.55094055 40.79295929 -20.0390625 39.78515625 C-19.53329681 38.77786972 -19.02753113 37.77058319 -18.50643921 36.73277283 C-16.88489177 33.50649522 -15.25506936 30.28447897 -13.625 27.0625 C-12.53330541 24.8941564 -11.44215282 22.72553984 -10.3515625 20.55664062 C-7.94395055 15.77093936 -5.53111326 10.98791475 -3.11367798 6.20716858 C-2.07090355 4.14052185 -1.03377825 2.07115897 0 0 Z M3 13 C0.03 19.27 -2.94 25.54 -6 32 C0.27 32 6.54 32 13 32 C8.545 22.595 8.545 22.595 4 13 C3.67 13 3.34 13 3 13 Z " fill="white" transform="translate(141,216)"/>
<path d="M0 0 C4.02660477 -1.20547004 6.96887089 -1.24740286 11 0 C16.13942855 4.14973694 20.31549284 9.41581064 24.45703125 14.53125 C26.00711395 16.344736 26.00711395 16.344736 29 16 C30.63506172 14.50686817 30.63506172 14.50686817 32.1875 12.5 C42.31877718 0.52024188 42.31877718 0.52024188 47.43359375 -1.0625 C50.13188191 -1.00635876 52.41901458 -0.77268586 55 0 C53.41060574 3.93214301 50.83657498 6.33020346 47.8125 9.25 C43.79880571 13.16886706 39.97676623 17.16424313 36.33984375 21.44140625 C35.27935864 22.67503179 34.15031749 23.84968251 33 25 C32.64415073 27.79808261 32.64415073 27.79808261 32.62109375 31.06640625 C32.58693359 32.27361328 32.55277344 33.48082031 32.51757812 34.72460938 C32.49115234 35.99111328 32.46472656 37.25761719 32.4375 38.5625 C32.3778521 41.06390459 32.31427147 43.56521961 32.24609375 46.06640625 C32.22216553 47.17959229 32.1982373 48.29277832 32.17358398 49.43969727 C32 52 32 52 31 53 C27.5 53.125 27.5 53.125 24 53 C23 52 23 52 22.95336914 49.56665039 C22.98035889 48.50438232 23.00734863 47.44211426 23.03515625 46.34765625 C23.8854819 33.2611561 23.8854819 33.2611561 19.95703125 21.265625 C17.43602655 18.87047984 14.8733213 16.94960171 12 15 C10.68286877 13.60479789 9.4073282 12.16852761 8.1875 10.6875 C6.22830945 8.38939734 4.24296506 6.21410479 2.0625 4.125 C0 2 0 2 0 0 Z " fill="white" transform="translate(665,216)"/>
<path d="M0 0 C17.16 0 34.32 0 52 0 C52 2.64 52 5.28 52 8 C44.74 8 37.48 8 30 8 C30 22.85 30 37.7 30 53 C27.36 53 24.72 53 22 53 C22 38.15 22 23.3 22 8 C14.74 8 7.48 8 0 8 C0 5.36 0 2.72 0 0 Z " fill="white" transform="translate(70,216)"/>
<path d="M0 0 C2.64 0 5.28 0 8 0 C8 17.49 8 34.98 8 53 C5.36 53 2.72 53 0 53 C0 35.51 0 18.02 0 0 Z " fill="white" transform="translate(586,216)"/>
<path d="M0 0 C0.25523437 0.98226562 0.25523437 0.98226562 0.515625 1.984375 C2.15844168 8.17115269 4.03049642 14.22724164 6.1328125 20.2734375 C6.94908815 22.83992581 7.52798903 25.35095884 8 28 C6.14295408 30.01852818 4.7008775 30.94813241 1.94140625 31.15234375 C-3.93634856 30.76577977 -6.90769193 29.19461577 -11 25 C-12.89806637 21.20386726 -12.62920684 16.89481146 -11.31640625 12.94140625 C-9.33178718 8.71688516 -5.191305 0 0 0 Z " fill="white" transform="translate(302,156)"/>
<path d="M0 0 C0.66 0.66 1.32 1.32 2 2 C1.43152344 1.93039063 0.86304688 1.86078125 0.27734375 1.7890625 C-4.40951395 1.46043475 -7.2597908 1.66196569 -10.9375 4.75 C-15.0943778 8.64154517 -16.22290602 12.12068429 -16.625 17.75 C-16.69976562 18.73484375 -16.77453125 19.7196875 -16.8515625 20.734375 C-16.92503906 21.85585938 -16.92503906 21.85585938 -17 23 C-17.33 23 -17.66 23 -18 23 C-18.4408888 15.65185326 -18.83060852 8.98575403 -14 3 C-9.38878181 -0.35361323 -5.49999338 -0.45833278 0 0 Z " fill="white" transform="translate(321,20)"/>
<path d="M0 0 C0.598125 0.20625 1.19625 0.4125 1.8125 0.625 C2.4375 2.4375 2.4375 2.4375 2.8125 4.625 C1.8225 6.11 1.8225 6.11 0.8125 7.625 C-0.8375 7.295 -2.4875 6.965 -4.1875 6.625 C-4.5175 4.975 -4.8475 3.325 -5.1875 1.625 C-2.1875 -0.375 -2.1875 -0.375 0 0 Z " fill="white" transform="translate(372.1875,101.375)"/>
<path d="M0 0 C2.26364287 3.61104933 2.26808674 6.66983266 2.25 10.875 C2.25515625 12.06867188 2.2603125 13.26234375 2.265625 14.4921875 C2.00134006 17.98230337 1.25362935 20.74653337 0 24 C-0.33 24 -0.66 24 -1 24 C-1.08250843 20.12210358 -0.97471781 16.41373185 -0.5 12.5625 C0.01499444 8.34099629 0.07728074 4.25044051 0 0 Z " fill="white" transform="translate(414,153)"/>
<path d="M0 0 C1.99732292 2.99598439 2.31106679 4.02492507 2.6328125 7.44921875 C2.71660156 8.29677734 2.80039062 9.14433594 2.88671875 10.01757812 C2.96535156 10.89865234 3.04398437 11.77972656 3.125 12.6875 C3.21136719 13.58017578 3.29773438 14.47285156 3.38671875 15.39257812 C3.59866378 17.5944515 3.80279012 19.79676609 4 22 C3.01 22 2.02 22 1 22 C0.67 14.74 0.34 7.48 0 0 Z " fill="white" transform="translate(379,21)"/>
<path d="M0 0 C0.66 0.33 1.32 0.66 2 1 C1.04882866 2.1725131 0.08882991 3.33787015 -0.875 4.5 C-1.40867187 5.1496875 -1.94234375 5.799375 -2.4921875 6.46875 C-2.98976563 6.9740625 -3.48734375 7.479375 -4 8 C-4.66 8 -5.32 8 -6 8 C-4.55746343 4.63408134 -2.66735273 2.48952921 0 0 Z " fill="white" transform="translate(277,112)"/>
<path d="M0 0 C1.32 0 2.64 0 4 0 C4 1.65 4 3.3 4 5 C2.68 4.67 1.36 4.34 0 4 C0 2.68 0 1.36 0 0 Z " fill="white" transform="translate(369,103)"/>
<path d="M0 0 C2.29633824 3.44450737 2.54016485 5.93812283 3 10 C2.01 10.495 2.01 10.495 1 11 C0.34 10.34 -0.32 9.68 -1 9 C-0.34 9 0.32 9 1 9 C0.67 6.03 0.34 3.06 0 0 Z " fill="white" transform="translate(445,123)"/>
</svg>
